<svg width="16" height="16" viewBox="0 0 16 16" fill="none" xmlns="http://www.w3.org/2000/svg">
<path d="M13.1668 7.33337V6.66671C13.1668 4.15255 13.1668 2.89547 12.3857 2.11442C11.6047 1.33337 10.3476 1.33337 7.83347 1.33337H7.16687C4.65272 1.33337 3.39564 1.33337 2.6146 2.11441C1.83355 2.89545 1.83354 4.15252 1.83352 6.66666L1.8335 9.33337C1.83347 11.8475 1.83346 13.1046 2.61448 13.8856C3.39553 14.6666 4.65265 14.6667 7.1668 14.6667" stroke="#24292E" stroke-width="1.5" stroke-linecap="round" stroke-linejoin="round"/>
<path d="M4.8335 4.66663H10.1668M4.8335 7.99996H10.1668" stroke="#24292E" stroke-width="1.5" stroke-linecap="round"/>
<path d="M8.83347 13.8846V14.6667H9.61573C9.88867 14.6667 10.0251 14.6667 10.1478 14.6159C10.2705 14.565 10.367 14.4686 10.56 14.2756L13.7757 11.0596C13.9577 10.8776 14.0487 10.7866 14.0974 10.6885C14.19 10.5017 14.19 10.2824 14.0974 10.0956C14.0487 9.99744 13.9577 9.90644 13.7757 9.72444C13.5937 9.54244 13.5027 9.45144 13.4045 9.40277C13.2177 9.31024 12.9983 9.31024 12.8115 9.40277C12.7134 9.45144 12.6223 9.54244 12.4403 9.72444L9.2246 12.9404C9.0316 13.1334 8.93513 13.2298 8.88433 13.3525C8.83347 13.4752 8.83347 13.6116 8.83347 13.8846Z" stroke="#0D0D0D" stroke-width="1.5" stroke-linejoin="round"/>
</svg>
